<svg width="136" height="20" viewBox="0 0 136 20" fill="none" xmlns="http://www.w3.org/2000/svg">
    <path d="M16.9906 20H0V0H5.61049V17.0683H16.9906V20Z" fill="#3823DD"/>
    <path d="M43.1254 17.1084H40.4196V20H26.1745V17.2691H23.3096V2.85141H26.0154V0H40.3002V2.73092H43.1254V17.1084ZM37.4353 17.1084V2.85141H28.9997V17.1084H37.4353Z" fill="#3823DD"/>
    <path d="M65.0025 20H50.8768V17.2691H48.0516V14.3775H45.1867V5.70281H47.8925V2.85141H50.7574V0H65.0025V2.77108H53.7815V5.62249H50.8768V14.1767H53.6621V17.1084H59.3522V11.5261H56.5668V8.59438H65.0025V20Z" fill="#3823DD"/>
    <path d="M96.2248 20H79.2342V17.1888H84.8447V2.93173H79.2342V0H96.2248V2.77108H90.6143V17.0683H96.2248V20Z" fill="#3823DD"/>
    <path d="M118.938 20H113.327V17.2691H110.502V14.3775H107.677V11.4458H104.891V20H99.1218V0H104.732V2.73092H107.597V5.58233H110.422V8.51406H113.208V0H118.938V20Z" fill="#3823DD"/>
    <path d="M136 5.62249H133.294V8.51406H130.429V11.3655H127.604V14.257H124.699V5.74297H127.525V0H136V5.62249ZM124.62 20H121.874V17.1888H124.62V20Z" fill="#3823DD"/>
    <path d="M20.1161 19H4V0H9.32172V16.2149H20.1161V19Z" fill="#DD2323"/>
    <path d="M44.9057 16.253H42.3392V19H28.8273V16.4056H26.1098V2.70884H28.6763V0H42.2259V2.59438H44.9057V16.253ZM39.5085 16.253V2.70884H31.507V16.253H39.5085Z" fill="#DD2323"/>
    <path d="M65.6568 19H52.2581V16.4056H49.5784V13.6586H46.8609V5.41767H49.4274V2.70884H52.1449V0H65.6568V2.63253H55.0133V5.34137H52.2581V13.4679H54.9001V16.253H60.2973V10.9498H57.6553V8.16466H65.6568V19Z" fill="#DD2323"/>
    <path d="M95.2721 19H79.156V16.3293H84.4777V2.78514H79.156V0H95.2721V2.63253H89.9504V16.2149H95.2721V19Z" fill="#DD2323"/>
    <path d="M116.816 19H111.494V16.4056H108.814V13.6586H106.135V10.8735H103.493V19H98.0199V0H103.342V2.59438H106.059V5.30321H108.739V8.08835H111.381V0H116.816V19Z" fill="#DD2323"/>
    <path d="M133 5.34137H130.433V8.08835H127.716V10.7972H125.036V13.5442H122.281V5.45582H124.961V0H133V5.34137ZM122.206 19H119.601V16.3293H122.206V19Z" fill="#DD2323"/>
    <path d="M22.112 18.66H6.73999V0.731995H11.816V16.032H22.112V18.66Z" fill="#E4FF19"/>
    <path d="M45.757 16.068H43.309V18.66H30.421V16.212H27.829V3.28799H30.277V0.731995H43.201V3.17999H45.757V16.068ZM40.609 16.068V3.28799H32.977V16.068H40.609Z" fill="#E4FF19"/>
    <path d="M65.5499 18.66H52.7699V16.212H50.2139V13.62H47.6219V5.84399H50.0699V3.28799H52.6619V0.731995H65.5499V3.21599H55.3979V5.772H52.7699V13.44H55.2899V16.068H60.4379V11.064H57.9179V8.436H65.5499V18.66Z" fill="#E4FF19"/>
    <path d="M93.7978 18.66H78.4258V16.14H83.5018V3.36H78.4258V0.731995H93.7978V3.21599H88.7218V16.032H93.7978V18.66Z" fill="#E4FF19"/>
    <path d="M114.347 18.66H109.271V16.212H106.715V13.62H104.159V10.992H101.639V18.66H96.4188V0.731995H101.495V3.17999H104.087V5.73599H106.643V8.364H109.163V0.731995H114.347V18.66Z" fill="#E4FF19"/>
    <path d="M129.784 5.772H127.336V8.364H124.744V10.92H122.188V13.512H119.56V5.87999H122.116V0.731995H129.784V5.772ZM119.488 18.66H117.004V16.14H119.488V18.66Z" fill="#E4FF19"/>
</svg>
