<svg width="132" height="19" viewBox="0 0 132 19" fill="none" xmlns="http://www.w3.org/2000/svg">
    <path d="M19.4776 16.253H16.818V19H2.81604V16.4056H0V13.6205H5.51474V16.253H13.9237V10.9498H2.81604V8.20281H0V2.70884H2.65959V0H13.8846V2.59438H16.7007V5.34137H11.1859V2.70884H5.59297V8.01205H16.7007V10.759H19.4776V16.253Z" fill="#3823DD"/>
    <path d="M40.16 19H23.4594V16.3293H28.9741V2.78514H23.4594V0H40.16V2.63253H34.6453V16.2149H40.16V19Z" fill="#3823DD"/>
    <path d="M62.4851 19H48.6005V16.4056H45.8236V13.6586H43.0075V5.41767H45.6671V2.70884H48.4832V0H62.4851V2.63253H51.4557V5.34137H48.6005V13.4679H51.3383V16.253H56.9313V10.9498H54.1935V8.16466H62.4851V19Z" fill="#3823DD"/>
    <path d="M83.9889 19H78.4742V16.4056H75.6972V13.6586H72.9203V10.8735H70.1825V19H64.5113V0H70.0261V2.59438H72.8421V5.30321H75.619V8.08835H78.3568V0H83.9889V19Z" fill="#3823DD"/>
    <path d="M110.496 16.253H107.837V19H93.8347V16.4056H91.0186V0H96.5334V16.253H104.864V0H110.496V16.253Z" fill="#3823DD"/>
    <path d="M132 10.7972H129.34V13.5442H118.194V19H112.522V0H129.223V2.59438H132V10.7972ZM126.407 10.7972V2.70884H118.115V10.7972H126.407Z" fill="#3823DD"/>
    <path d="M21.5923 16.253H19.0536V19H5.68804V16.4056H3V13.6205H8.26407V16.253H16.2909V10.9498H5.68804V8.20281H3V2.70884H5.5387V0H16.2535V2.59438H18.9416V5.34137H13.6775V2.70884H8.33874V8.01205H18.9416V10.759H21.5923V16.253Z" fill="#DE3F22"/>
    <path d="M41.3346 19H25.393V16.3293H30.6571V2.78514H25.393V0H41.3346V2.63253H36.0705V16.2149H41.3346V19Z" fill="#DE3F22"/>
    <path d="M62.6449 19H49.3914V16.4056H46.7407V13.6586H44.0527V5.41767H46.5914V2.70884H49.2794V0H62.6449V2.63253H52.1168V5.34137H49.3914V13.4679H52.0048V16.253H57.3435V10.9498H54.7301V8.16466H62.6449V19Z" fill="#DE3F22"/>
    <path d="M83.1712 19H77.9072V16.4056H75.2565V13.6586H72.6058V10.8735H69.9924V19H64.579V0H69.843V2.59438H72.5311V5.30321H75.1818V8.08835H77.7952V0H83.1712V19Z" fill="#DE3F22"/>
    <path d="M108.474 16.253H105.935V19H92.5695V16.4056H89.8814V0H95.1455V16.253H103.098V0H108.474V16.253Z" fill="#DE3F22"/>
    <path d="M129 10.7972H126.461V13.5442H115.821V19H110.408V0H126.349V2.59438H129V10.7972ZM123.661 10.7972V2.70884H115.746V10.7972H123.661Z" fill="#DE3F22"/>
    <path d="M22.964 16.068H20.516V18.66H7.62801V16.212H5.03601V13.584H10.112V16.068H17.852V11.064H7.62801V8.47199H5.03601V3.28799H7.48401V0.731995H17.816V3.17999H20.408V5.772H15.332V3.28799H10.184V8.292H20.408V10.884H22.964V16.068Z" fill="#E4FF19"/>
    <path d="M42.001 18.66H26.629V16.14H31.705V3.36H26.629V0.731995H42.001V3.21599H36.925V16.032H42.001V18.66Z" fill="#E4FF19"/>
    <path d="M62.5499 18.66H49.7699V16.212H47.2139V13.62H44.6219V5.84399H47.07V3.28799H49.6619V0.731995H62.5499V3.21599H52.3979V5.772H49.7699V13.44H52.2899V16.068H57.438V11.064H54.9179V8.436H62.5499V18.66Z" fill="#E4FF19"/>
    <path d="M82.3429 18.66H77.2669V16.212H74.7109V13.62H72.1549V10.992H69.6349V18.66H64.4149V0.731995H69.4909V3.17999H72.0829V5.73599H74.6389V8.364H77.1589V0.731995H82.3429V18.66Z" fill="#E4FF19"/>
    <path d="M106.741 16.068H104.293V18.66H91.4054V16.212H88.8134V0.731995H93.8894V16.068H101.557V0.731995H106.741V16.068Z" fill="#E4FF19"/>
    <path d="M126.534 10.92H124.086V13.512H113.826V18.66H108.606V0.731995H123.978V3.17999H126.534V10.92ZM121.386 10.92V3.28799H113.754V10.92H121.386Z" fill="#E4FF19"/>
</svg>
